<svg xmlns="http://www.w3.org/2000/svg" viewBox="0 0 256 256">
  <defs>
    <linearGradient id="apple" x1="0" y1="0" x2="1" y2="1"><stop stop-color="#f7826a"/><stop offset=".55" stop-color="#ed6359"/><stop offset="1" stop-color="#cf4848"/></linearGradient>
    <mask id="bite"><rect width="256" height="256" fill="white"/><path d="M0 84L40 89C58 88 75 103 73 119C92 122 97 146 81 158C90 177 76 193 58 196L0 199Z" fill="black"/></mask>
  </defs>
  <ellipse cx="138" cy="238" rx="57" ry="8" fill="#70573a" opacity=".10"/>
  <g mask="url(#bite)">
    <path d="M128 74C106 58 63 60 42 83C16 111 21 161 47 203C69 238 98 241 128 223C160 241 190 232 213 196C240 154 237 112 214 85C192 62 151 59 128 74Z" fill="url(#apple)" stroke="#bd4645" stroke-width="3"/>
    <path d="M40 89C58 88 75 103 73 119C92 122 97 146 81 158C90 177 76 193 58 196" fill="none" stroke="#ffedcf" stroke-width="12" stroke-linecap="round"/>
  </g>
  <path d="M126 77C119 58 113 41 120 25" fill="none" stroke="#547848" stroke-width="11" stroke-linecap="round"/>
  <path d="M131 58C137 24 173 15 194 23C185 52 158 70 131 58Z" fill="#65a855" stroke="#438a45" stroke-width="3"/>
  <path d="M136 56L181 30" fill="none" stroke="#d1e9a8" stroke-width="3" stroke-linecap="round"/>
  <path d="M123 57C112 34 87 32 76 44C86 63 109 68 123 57Z" fill="#89bc67" stroke="#589749" stroke-width="2"/>
</svg>
